<svg width="340" height="272" viewBox="0 0 255 204" xmlns="http://www.w3.org/2000/svg" preserveAspectRatio="xMidYMid"><path d="M126.027 180.094c-.84 0-1.675-.239-2.433-.637l-7.649-4.543c-1.156-.637-.597-.875-.199-.996 1.516-.52 1.832-.637 3.465-1.594.16-.078.398-.039.559.04l5.898 3.507a.77.77 0 0 0 .715 0l23.031-13.309c.2-.12.36-.359.36-.636v-26.578c0-.278-.122-.516-.36-.637l-23.031-13.266c-.2-.12-.477-.12-.715 0l-23.031 13.266c-.239.121-.36.398-.36.637v26.578c0 .238.16.476.36.597l6.297 3.625c3.425 1.715 5.539-.32 5.539-2.312v-26.254c0-.36.277-.68.675-.68h2.91c.356 0 .676.282.676.68v26.254c0 4.582-2.468 7.172-6.812 7.172-1.317 0-2.39 0-5.3-1.434l-6.056-3.465c-1.476-.879-2.43-2.472-2.43-4.183v-26.578c0-1.711.915-3.344 2.43-4.184l23.028-13.305c1.476-.84 3.386-.84 4.824 0l23.027 13.305c1.477.879 2.43 2.473 2.43 4.184v26.578c0 1.71-.914 3.347-2.43 4.183l-23.027 13.309c-.68.437-1.516.676-2.39.676Zm18.606-26.219c0-4.98-3.348-6.293-10.438-7.25-7.172-.957-7.89-1.434-7.89-3.11 0-1.394.597-3.226 5.898-3.226 4.738 0 6.492 1.035 7.211 4.223.078.32.316.52.637.52h2.988c.2 0 .36-.079.477-.2.12-.16.199-.32.16-.52-.477-5.496-4.102-8.046-11.473-8.046-6.574 0-10.48 2.789-10.48 7.41 0 5.062 3.906 6.414 10.199 7.054 7.531.754 8.129 1.833 8.129 3.305 0 2.59-2.07 3.668-6.934 3.668-6.094 0-7.449-1.516-7.887-4.543-.043-.32-.32-.558-.68-.558h-2.987a.668.668 0 0 0-.676.675c0 3.868 2.11 8.489 12.191 8.489 7.371 0 11.555-2.868 11.555-7.891Zm21.715-19.96a4.438 4.438 0 0 1-4.422 4.42 4.438 4.438 0 0 1-4.422-4.42c0-2.509 2.07-4.423 4.422-4.423 2.39-.039 4.422 1.914 4.422 4.422Zm-.72 0c0-2.071-1.671-3.704-3.741-3.704a3.697 3.697 0 0 0-3.707 3.703c0 2.074 1.672 3.746 3.707 3.746 2.07-.039 3.742-1.715 3.742-3.746Zm-1.792 2.472H162.8a62.73 62.73 0 0 1-.2-1.555c-.078-.281-.16-.437-.515-.437h-.879v1.992h-.957v-4.98h1.715c.597 0 1.754 0 1.754 1.312 0 .918-.598 1.117-.957 1.234.675.043.718.48.836 1.117.039.399.12 1.075.238 1.317Zm-1.113-3.508c0-.676-.48-.676-.72-.676h-.796v1.395h.758c.637 0 .758-.442.758-.72ZM54.707 76.102a2.901 2.901 0 0 0-1.477-2.551L28.81 59.488c-.399-.242-.88-.36-1.356-.398h-.238c-.48 0-.918.156-1.356.398L1.473 73.551A2.952 2.952 0 0 0 0 76.1l.04 37.852c0 .52.28.996.718 1.274.437.28.996.28 1.472 0l14.504-8.325c.918-.558 1.473-1.515 1.473-2.55V86.66c0-1.035.559-2.031 1.477-2.55l6.175-3.547a2.843 2.843 0 0 1 1.473-.399c.52 0 1.035.121 1.477.398l6.175 3.547a2.952 2.952 0 0 1 1.473 2.551v17.692c0 1.035.559 2.03 1.473 2.55l14.504 8.325a1.397 1.397 0 0 0 1.476 0c.438-.239.715-.754.715-1.274Zm133.555-41.317v70.281c0 1.04-.559 2.036-1.473 2.551l-24.426 14.106c-.918.52-2.031.52-2.949 0l-24.422-14.106a2.938 2.938 0 0 1-1.476-2.55V76.858c0-1.035.558-2.03 1.476-2.55l24.422-14.106a3.005 3.005 0 0 1 2.95 0l6.097 3.508c.676.398 1.55-.121 1.55-.879V25.379a1.465 1.465 0 0 1 2.192-1.274l14.543 8.13c.918.476 1.516 1.472 1.516 2.55Zm-18.328 51.356a.758.758 0 0 0-.36-.637l-8.367-4.86a.836.836 0 0 0-.758 0l-8.367 4.86c-.238.121-.355.36-.355.637v9.683c0 .278.156.52.355.637l8.367 4.82c.242.121.52.121.719 0l8.367-4.82c.238-.117.36-.36.36-.637v-9.683Zm83.593-.278a2.952 2.952 0 0 0 1.473-2.55V76.5a2.952 2.952 0 0 0-1.473-2.55l-24.265-14.106a3.005 3.005 0 0 0-2.95 0l-24.425 14.105a2.952 2.952 0 0 0-1.473 2.551v28.21c0 1.075.559 2.032 1.473 2.548l24.265 13.828c.88.516 1.993.516 2.91 0l14.66-8.168a1.462 1.462 0 0 0 0-2.55l-24.581-14.106c-.477-.278-.758-.758-.758-1.274v-8.847c0-.516.281-.996.758-1.274l7.648-4.422a1.397 1.397 0 0 1 1.477 0l7.648 4.422c.438.278.758.758.758 1.274v6.933c0 1.117 1.234 1.832 2.23 1.278Zm-30.8 1.395c-.16.12-.278.277-.278.476v5.422c0 .2.117.399.278.477l4.703 2.71a.482.482 0 0 0 .554 0l4.703-2.71c.16-.121.278-.278.278-.477v-5.422c0-.199-.117-.398-.278-.476l-4.703-2.711a.482.482 0 0 0-.554 0ZM121.445 104.59V76.54c0-1.036-.64-2.032-1.554-2.552L95.547 59.965c-.84-.477-1.992-.559-2.95 0L68.255 73.988c-.918.52-1.555 1.477-1.555 2.551v28.05c0 1.118.758 2.071 1.594 2.552l24.383 14.023a2.89 2.89 0 0 0 2.949 0l24.305-14.023a2.959 2.959 0 0 0 1.433-1.875c.04-.2.082-.438.082-.676ZM91.84 54.824l-.32.2h.44Zm30.36 51.88-.157-.282v.36Zm0 0" fill="#539E43"/></svg>